<svg width="78" height="78" viewBox="0 0 78 78" fill="none" xmlns="http://www.w3.org/2000/svg">
<g id="27) Icon/linkedin">
<path id="&#240;&#159;&#142;&#168; Icon &#208;&#161;olor" fill-rule="evenodd" clip-rule="evenodd" d="M13.0001 32.5H12.9936L13.0001 65H19.5001V32.5H13.0001ZM19.5 71.5H13C9.41525 71.5 6.5 68.5848 6.5 65V32.5C6.5 28.9153 9.41525 26 13 26H19.5C23.0848 26 26 28.9153 26 32.5V65C26 68.5848 23.0848 71.5 19.5 71.5V71.5ZM50.3912 38.0003C50.8884 38.0003 51.3922 38.0426 51.8894 38.1206C56.2769 38.8388 59.5822 42.8883 59.5822 47.5456V65.0013H64.9999V47.2498C64.9999 39.1183 58.4414 32.5013 50.3749 32.5013C42.3117 32.5013 35.7499 39.1183 35.7499 47.2498V65.0013H41.1677V47.2498C41.1677 44.5231 42.3539 41.9491 44.4274 40.1876C46.1044 38.7641 48.2137 38.0003 50.3912 38.0003M64.9999 71.5014H59.5822C56.0007 71.5014 53.0822 68.5829 53.0822 65.0014V47.5456C53.0822 46.0604 52.0974 44.7409 50.8462 44.5394C49.7542 44.3509 48.9937 44.8384 48.6394 45.1374C48.0219 45.6639 47.6677 46.4341 47.6677 47.2499V65.0014C47.6677 68.5829 44.7524 71.5014 41.1677 71.5014H35.7499C32.1684 71.5014 29.2499 68.5829 29.2499 65.0014V47.2499C29.2499 35.5304 38.7269 26.0014 50.3749 26.0014C62.0229 26.0014 71.4999 35.5304 71.4999 47.2499V65.0014C71.4999 68.5829 68.5847 71.5014 64.9999 71.5014M16.2502 9.74997C14.4562 9.74997 13.0002 11.206 13.0002 13C13.0002 14.794 14.4562 16.25 16.2502 16.25C18.0442 16.25 19.5002 14.794 19.5002 13C19.5002 11.206 18.0442 9.74997 16.2502 9.74997M16.25 22.75C10.8745 22.75 6.5 18.3755 6.5 13C6.5 7.6245 10.8745 3.25 16.25 3.25C21.6255 3.25 26 7.6245 26 13C26 18.3755 21.6255 22.75 16.25 22.75" fill="#222B45"/>
<mask id="mask0" mask-type="alpha" maskUnits="userSpaceOnUse" x="6" y="3" width="66" height="69">
<path id="&#240;&#159;&#142;&#168; Icon &#208;&#161;olor_2" fill-rule="evenodd" clip-rule="evenodd" d="M13.0001 32.5H12.9936L13.0001 65H19.5001V32.5H13.0001ZM19.5 71.5H13C9.41525 71.5 6.5 68.5848 6.5 65V32.5C6.5 28.9153 9.41525 26 13 26H19.5C23.0848 26 26 28.9153 26 32.5V65C26 68.5848 23.0848 71.5 19.5 71.5V71.5ZM50.3912 38.0003C50.8884 38.0003 51.3922 38.0426 51.8894 38.1206C56.2769 38.8388 59.5822 42.8883 59.5822 47.5456V65.0013H64.9999V47.2498C64.9999 39.1183 58.4414 32.5013 50.3749 32.5013C42.3117 32.5013 35.7499 39.1183 35.7499 47.2498V65.0013H41.1677V47.2498C41.1677 44.5231 42.3539 41.9491 44.4274 40.1876C46.1044 38.7641 48.2137 38.0003 50.3912 38.0003M64.9999 71.5014H59.5822C56.0007 71.5014 53.0822 68.5829 53.0822 65.0014V47.5456C53.0822 46.0604 52.0974 44.7409 50.8462 44.5394C49.7542 44.3509 48.9937 44.8384 48.6394 45.1374C48.0219 45.6639 47.6677 46.4341 47.6677 47.2499V65.0014C47.6677 68.5829 44.7524 71.5014 41.1677 71.5014H35.7499C32.1684 71.5014 29.2499 68.5829 29.2499 65.0014V47.2499C29.2499 35.5304 38.7269 26.0014 50.3749 26.0014C62.0229 26.0014 71.4999 35.5304 71.4999 47.2499V65.0014C71.4999 68.5829 68.5847 71.5014 64.9999 71.5014M16.2502 9.74997C14.4562 9.74997 13.0002 11.206 13.0002 13C13.0002 14.794 14.4562 16.25 16.2502 16.25C18.0442 16.25 19.5002 14.794 19.5002 13C19.5002 11.206 18.0442 9.74997 16.2502 9.74997M16.25 22.75C10.8745 22.75 6.5 18.3755 6.5 13C6.5 7.6245 10.8745 3.25 16.25 3.25C21.6255 3.25 26 7.6245 26 13C26 18.3755 21.6255 22.75 16.25 22.75" fill="white"/>
</mask>
<g mask="url(#mask0)">
</g>
</g>
</svg>
