<svg width="32" height="32" viewBox="0 0 32 32" fill="none" xmlns="http://www.w3.org/2000/svg">
<g id="27) Icon/linkedin">
<path id="&#240;&#159;&#142;&#168; Icon &#208;&#161;olor" fill-rule="evenodd" clip-rule="evenodd" d="M5.33367 13.3334H5.33101L5.33367 26.6667H8.00034V13.3334H5.33367ZM8.00032 29.3334H5.33366C3.86299 29.3334 2.66699 28.1374 2.66699 26.6667V13.3334C2.66699 11.8627 3.86299 10.6667 5.33366 10.6667H8.00032C9.47099 10.6667 10.667 11.8627 10.667 13.3334V26.6667C10.667 28.1374 9.47099 29.3334 8.00032 29.3334V29.3334ZM20.6736 15.5899C20.8776 15.5899 21.0842 15.6073 21.2882 15.6393C23.0882 15.9339 24.4442 17.5953 24.4442 19.5059V26.6673H26.6669V19.3846C26.6669 16.0486 23.9762 13.3339 20.6669 13.3339C17.3589 13.3339 14.6669 16.0486 14.6669 19.3846V26.6673H16.8896V19.3846C16.8896 18.2659 17.3762 17.2099 18.2269 16.4873C18.9149 15.9033 19.7802 15.5899 20.6736 15.5899M26.6669 29.3339H24.4443C22.9749 29.3339 21.7776 28.1366 21.7776 26.6673V19.5059C21.7776 18.8966 21.3736 18.3553 20.8603 18.2726C20.4123 18.1953 20.1003 18.3953 19.9549 18.5179C19.7016 18.7339 19.5563 19.0499 19.5563 19.3846V26.6673C19.5563 28.1366 18.3603 29.3339 16.8896 29.3339H14.6669C13.1976 29.3339 12.0003 28.1366 12.0003 26.6673V19.3846C12.0003 14.5766 15.8883 10.6673 20.6669 10.6673C25.4456 10.6673 29.3336 14.5766 29.3336 19.3846V26.6673C29.3336 28.1366 28.1376 29.3339 26.6669 29.3339M6.6672 4.00002C5.9312 4.00002 5.33386 4.59735 5.33386 5.33335C5.33386 6.06935 5.9312 6.66668 6.6672 6.66668C7.4032 6.66668 8.00053 6.06935 8.00053 5.33335C8.00053 4.59735 7.4032 4.00002 6.6672 4.00002M6.66699 9.33337C4.46166 9.33337 2.66699 7.53871 2.66699 5.33337C2.66699 3.12804 4.46166 1.33337 6.66699 1.33337C8.87232 1.33337 10.667 3.12804 10.667 5.33337C10.667 7.53871 8.87232 9.33337 6.66699 9.33337" fill="white"/>
<mask id="mask0" mask-type="alpha" maskUnits="userSpaceOnUse" x="2" y="1" width="28" height="29">
<path id="&#240;&#159;&#142;&#168; Icon &#208;&#161;olor_2" fill-rule="evenodd" clip-rule="evenodd" d="M5.33367 13.3334H5.33101L5.33367 26.6667H8.00034V13.3334H5.33367ZM8.00032 29.3334H5.33366C3.86299 29.3334 2.66699 28.1374 2.66699 26.6667V13.3334C2.66699 11.8627 3.86299 10.6667 5.33366 10.6667H8.00032C9.47099 10.6667 10.667 11.8627 10.667 13.3334V26.6667C10.667 28.1374 9.47099 29.3334 8.00032 29.3334V29.3334ZM20.6736 15.5899C20.8776 15.5899 21.0842 15.6073 21.2882 15.6393C23.0882 15.9339 24.4442 17.5953 24.4442 19.5059V26.6673H26.6669V19.3846C26.6669 16.0486 23.9762 13.3339 20.6669 13.3339C17.3589 13.3339 14.6669 16.0486 14.6669 19.3846V26.6673H16.8896V19.3846C16.8896 18.2659 17.3762 17.2099 18.2269 16.4873C18.9149 15.9033 19.7802 15.5899 20.6736 15.5899M26.6669 29.3339H24.4443C22.9749 29.3339 21.7776 28.1366 21.7776 26.6673V19.5059C21.7776 18.8966 21.3736 18.3553 20.8603 18.2726C20.4123 18.1953 20.1003 18.3953 19.9549 18.5179C19.7016 18.7339 19.5563 19.0499 19.5563 19.3846V26.6673C19.5563 28.1366 18.3603 29.3339 16.8896 29.3339H14.6669C13.1976 29.3339 12.0003 28.1366 12.0003 26.6673V19.3846C12.0003 14.5766 15.8883 10.6673 20.6669 10.6673C25.4456 10.6673 29.3336 14.5766 29.3336 19.3846V26.6673C29.3336 28.1366 28.1376 29.3339 26.6669 29.3339M6.6672 4.00002C5.9312 4.00002 5.33386 4.59735 5.33386 5.33335C5.33386 6.06935 5.9312 6.66668 6.6672 6.66668C7.4032 6.66668 8.00053 6.06935 8.00053 5.33335C8.00053 4.59735 7.4032 4.00002 6.6672 4.00002M6.66699 9.33337C4.46166 9.33337 2.66699 7.53871 2.66699 5.33337C2.66699 3.12804 4.46166 1.33337 6.66699 1.33337C8.87232 1.33337 10.667 3.12804 10.667 5.33337C10.667 7.53871 8.87232 9.33337 6.66699 9.33337" fill="white"/>
</mask>
<g mask="url(#mask0)">
</g>
</g>
</svg>
